<?xml version="1.0"?>
<svg xmlns="http://www.w3.org/2000/svg" xmlns:xlink="http://www.w3.org/1999/xlink" xmlns:svgjs="http://svgjs.com/svgjs" version="1.1" width="512" height="512" x="0" y="0" viewBox="0 0 512 512" style="enable-background:new 0 0 512 512" xml:space="preserve" class=""><g><g xmlns="http://www.w3.org/2000/svg"><path d="m511.999 156.599c0-22.405-18.228-40.632-40.632-40.632h-430.733c-22.405 0-40.633 18.228-40.633 40.632v92.683c0 4.142 3.357 7.5 7.5 7.5s7.5-3.358 7.5-7.5v-92.683c0-14.134 11.499-25.632 25.633-25.632h430.732c14.134 0 25.632 11.498 25.632 25.632v241.001h-481.996v-118.318c0-4.142-3.357-7.5-7.5-7.5s-7.5 3.358-7.5 7.5v158.953c0 22.405 18.228 40.632 40.633 40.632h54.13l-11.139 22.279c-1.163 2.325-1.038 5.086.328 7.297s3.78 3.557 6.38 3.557h33.134c2.841 0 5.438-1.605 6.708-4.146l14.493-28.987h21.724c4.143 0 7.5-3.358 7.5-7.5s-3.357-7.5-7.5-7.5h-125.759c-14.134 0-25.633-11.499-25.633-25.632v-25.635h481.997v25.635c0 14.134-11.498 25.632-25.632 25.632h-274.974c-4.143 0-7.5 3.358-7.5 7.5s3.357 7.5 7.5 7.5h170.941l14.493 28.987c1.27 2.541 3.867 4.146 6.708 4.146h33.134c2.6 0 5.014-1.346 6.38-3.557s1.491-4.972.328-7.297l-11.14-22.279h54.131c22.404 0 40.632-18.228 40.632-40.632v-33.096c0-.013 0-248.54 0-248.54zm-393.167 340.401h-16.363l9.066-18.133h16.364zm290.7 0h-16.362l-9.067-18.133h16.363z" fill="#0c969c" data-original="#000000" style="" class=""/><path d="m405.1 445.733c4.143 0 7.5-3.358 7.5-7.5s-3.357-7.5-7.5-7.5h-16.566c-4.143 0-7.5 3.358-7.5 7.5s3.357 7.5 7.5 7.5z" fill="#0c969c" data-original="#000000" style="" class=""/><path d="m355.401 445.733c4.143 0 7.5-3.358 7.5-7.5s-3.357-7.5-7.5-7.5h-16.567c-4.143 0-7.5 3.358-7.5 7.5s3.357 7.5 7.5 7.5z" fill="#0c969c" data-original="#000000" style="" class=""/><path d="m454.8 445.733c4.143 0 7.5-3.358 7.5-7.5s-3.357-7.5-7.5-7.5h-16.566c-4.143 0-7.5 3.358-7.5 7.5s3.357 7.5 7.5 7.5z" fill="#0c969c" data-original="#000000" style="" class=""/><path d="m380.534 329.767c8.547 0 15.5-6.953 15.5-15.5v-99.967c0-8.547-6.953-15.5-15.5-15.5h-249.067c-8.547 0-15.5 6.953-15.5 15.5v99.967c0 8.547 6.953 15.5 15.5 15.5zm-249.567-15.5v-99.967c0-.276.225-.5.5-.5h249.066c.275 0 .5.224.5.5v99.967c0 .276-.225.5-.5.5h-249.066c-.275 0-.5-.224-.5-.5z" fill="#0c969c" data-original="#000000" style="" class=""/><path d="m156.6 296.633h33.134c4.143 0 7.5-3.358 7.5-7.5s-3.357-7.5-7.5-7.5h-25.634v-42.2c0-4.142-3.357-7.5-7.5-7.5s-7.5 3.358-7.5 7.5v49.7c0 4.142 3.358 7.5 7.5 7.5z" fill="#0c969c" data-original="#000000" style="" class=""/><path d="m222.867 296.633c4.143 0 7.5-3.358 7.5-7.5v-49.7c0-4.142-3.357-7.5-7.5-7.5s-7.5 3.358-7.5 7.5v49.7c0 4.142 3.357 7.5 7.5 7.5z" fill="#0c969c" data-original="#000000" style="" class=""/><path d="m322.267 296.633h33.134c4.143 0 7.5-3.358 7.5-7.5s-3.357-7.5-7.5-7.5h-25.634v-9.85h17.35c4.143 0 7.5-3.358 7.5-7.5s-3.357-7.5-7.5-7.5h-17.35v-9.85h25.634c4.143 0 7.5-3.358 7.5-7.5s-3.357-7.5-7.5-7.5h-33.134c-4.143 0-7.5 3.358-7.5 7.5v49.7c0 4.142 3.358 7.5 7.5 7.5z" fill="#0c969c" data-original="#000000" style="" class=""/><path d="m265.452 291.505c1.021 3.063 3.887 5.128 7.115 5.128s6.095-2.066 7.115-5.128l16.567-49.7c1.31-3.929-.814-8.177-4.743-9.487-3.933-1.311-8.178.813-9.487 4.744l-9.452 28.355-9.451-28.355c-1.309-3.93-5.558-6.055-9.487-4.744-3.929 1.31-6.053 5.557-4.743 9.487z" fill="#0c969c" data-original="#000000" style="" class=""/><path d="m172.678 44.466c1.657 0 3.325-.546 4.714-1.67 22.143-17.924 50.06-27.796 78.608-27.796s56.465 9.871 78.607 27.795c3.221 2.607 7.944 2.109 10.548-1.111 2.606-3.22 2.109-7.942-1.11-10.548-24.804-20.078-56.072-31.136-88.045-31.136s-63.241 11.058-88.046 31.137c-3.22 2.606-3.717 7.329-1.11 10.548 1.482 1.831 3.649 2.781 5.834 2.781z" fill="#0c969c" data-original="#000000" style="" class=""/><path d="m323.108 74.207c2.03 0 4.054-.82 5.533-2.435 2.797-3.055 2.589-7.799-.466-10.596-19.747-18.084-45.38-28.043-72.175-28.043-26.793 0-52.424 9.958-72.172 28.04-3.056 2.797-3.265 7.542-.467 10.597s7.54 3.264 10.596.467c16.976-15.543 39.01-24.103 62.043-24.103 23.035 0 45.07 8.561 62.044 24.105 1.44 1.318 3.254 1.968 5.064 1.968z" fill="#0c969c" data-original="#000000" style="" class=""/><path d="m256 66.267c-21.678 0-42.171 9.481-56.224 26.011-2.684 3.156-2.3 7.889.856 10.572 3.154 2.683 7.889 2.298 10.571-.856 11.2-13.173 27.528-20.727 44.797-20.727 17.272 0 33.6 7.555 44.797 20.729 1.484 1.745 3.594 2.643 5.719 2.643 1.717 0 3.442-.586 4.853-1.786 3.156-2.683 3.54-7.416.858-10.572-14.053-16.532-34.547-26.014-56.227-26.014z" fill="#0c969c" data-original="#000000" style="" class=""/></g></g></svg>
