<?xml version="1.0"?>
<svg xmlns="http://www.w3.org/2000/svg" xmlns:xlink="http://www.w3.org/1999/xlink" xmlns:svgjs="http://svgjs.com/svgjs" version="1.1" width="512" height="512" x="0" y="0" viewBox="0 0 512 512" style="enable-background:new 0 0 512 512" xml:space="preserve" class=""><g><g xmlns="http://www.w3.org/2000/svg"><g><g><g><path d="m483.02 33.12h-297.32c-4.143 0-7.5 3.358-7.5 7.5s3.357 7.5 7.5 7.5h297.32c7.709 0 13.98 6.271 13.98 13.98v145.117h-35.794v-33.183c0-9.649-7.851-17.5-17.5-17.5h-11.824c-1.191-8.499-8.489-15.067-17.311-15.067h-16.354c-9.649 0-17.5 7.851-17.5 17.5v34.393h-40.579c-.892-5.12-3.38-9.931-7.136-13.617-4.7-4.613-10.8-7.086-17.305-6.965-4.43.083-8.579 1.377-12.139 3.555-1.525-1.956-3.161-3.822-4.915-5.575-1.681-1.682-3.457-3.253-5.311-4.715 4.164-5.044 6.668-11.506 6.668-18.542v-25.199c4.036-2.075 6.809-6.273 6.809-11.115v-12.01c0-6.287-4.67-11.49-10.72-12.358-6.514-13.513-20.057-22.099-35.249-22.099h-3.63c-15.191 0-28.734 8.586-35.248 22.099-6.052.867-10.723 6.071-10.723 12.359v12.008c0 4.843 2.774 9.042 6.812 11.117v10.397c0 10.376 3.622 19.918 9.657 27.446-7.215 3.826-13.583 9.073-18.725 15.484-3.583-1.936-7.591-2.93-11.741-2.853-11.894.223-21.783 9.15-23.591 20.582h-39.366v-34.393c0-9.649-7.851-17.5-17.5-17.5h-16.354c-8.822 0-16.12 6.568-17.311 15.067h-11.826c-9.649 0-17.5 7.851-17.5 17.5v33.183h-38.794v-145.116c0-7.708 6.271-13.98 13.98-13.98h119.69c4.143 0 7.5-3.358 7.5-7.5s-3.357-7.5-7.5-7.5h-119.69c-15.979 0-28.98 13-28.98 28.98v277.49c0 15.979 13.001 28.98 28.98 28.98h35.955c-10.777 11.724-17.37 27.352-17.37 44.495 0 36.292 29.525 65.816 65.816 65.816 15.282 0 29.402-5.312 40.62-14.169 3.864 8.355 12.318 14.168 22.109 14.168l248.496.001c9.269 0 16.809-7.541 16.809-16.809v-65.498c0-9.268-7.54-16.809-16.809-16.809h-111.434l-1.67-11.196h171.518c15.979 0 28.98-13 28.98-28.98v-277.489c0-15.98-13.001-28.98-28.98-28.98zm13.98 189.096v80.453h-180.7v-13.689c13.362-.076 24.211-10.967 24.211-24.348v-31.023h40.206v34.389c0 9.649 7.851 17.5 17.5 17.5h16.354c8.822 0 16.12-6.568 17.311-15.067h11.824c9.649 0 17.5-7.851 17.5-17.5v-30.715zm-205.191-13.857v10.25h-69.755v-10.25zm-81.109 76.85c6.816-4.321 11.354-11.927 11.354-20.577v-31.023h69.755v31.023c0 7.836 3.724 14.815 9.491 19.272v18.765h-90.6zm185.017-126.243c0-1.378 1.121-2.5 2.5-2.5h16.354c1.379 0 2.5 1.122 2.5 2.5v25.881c0 4.142 3.357 7.5 7.5 7.5s7.5-3.358 7.5-7.5v-13.314h11.635c1.379 0 2.5 1.122 2.5 2.5v78.898c0 1.378-1.121 2.5-2.5 2.5h-11.635v-33.557c0-4.142-3.357-7.5-7.5-7.5s-7.5 3.358-7.5 7.5v46.124c0 1.378-1.121 2.5-2.5 2.5h-16.354c-1.379 0-2.5-1.122-2.5-2.5zm-15 59.643h-40.206v-10.25h40.206zm-64.738-30.835c.055-.001.109-.001.163-.001 2.341 0 4.592.946 6.354 2.675 1.916 1.881 3.016 4.475 3.016 7.117v67.067c0 5.156-4.194 9.352-9.351 9.352s-9.352-4.195-9.352-9.352v-67.508c0-5.061 4.113-9.255 9.17-9.35zm-82.929-55.074v-9.015h51.95v23.815c0 7.813-6.356 14.17-14.17 14.17h-8.8c-15.979-.001-28.98-12.996-28.98-28.97zm58.759-31.023v7.008h-65.57v-7.008zm-30.969-21.958c6.527 0 12.552 2.581 16.972 6.958h-37.573c4.42-4.376 10.444-6.958 16.972-6.958zm-20.532 91.189c6.413 3.659 13.825 5.761 21.723 5.761h8.8c3.285 0 6.441-.554 9.389-1.559 2.817 1.78 5.437 3.873 7.818 6.253 2.057 2.057 3.898 4.322 5.53 6.742-.675 1.671-1.172 3.43-1.461 5.254h-70.426c-.409-2.348-1.152-4.629-2.202-6.768 5.267-7.18 12.482-12.611 20.829-15.683zm-51.956 26.216c0-5.061 4.113-9.255 9.17-9.35.055-.001.109-.001.163-.001 2.341 0 4.592.946 6.354 2.675 1.916 1.881 3.016 4.475 3.016 7.117v67.067c0 5.156-4.195 9.352-9.352 9.352s-9.351-4.195-9.351-9.352zm-15 11.235v10.25h-39.068v-10.25zm-75.423-49.393c0-1.378 1.121-2.5 2.5-2.5h16.354c1.379 0 2.5 1.122 2.5 2.5v109.032c0 1.378-1.121 2.5-2.5 2.5h-16.354c-1.379 0-2.5-1.122-2.5-2.5zm-29.135 15.067c0-1.378 1.121-2.5 2.5-2.5h11.635v83.898h-11.635c-1.379 0-2.5-1.122-2.5-2.5zm-15 48.183v30.715c0 9.649 7.851 17.5 17.5 17.5h11.824c1.191 8.499 8.489 15.067 17.311 15.067h16.354c9.649 0 17.5-7.851 17.5-17.5v-34.389h39.068v31.023c0 12.753 9.856 23.24 22.349 24.263v13.774h-180.7v-80.453zm59.588 241.664c-28.021 0-50.816-22.796-50.816-50.816s22.796-50.816 50.816-50.816c16.057 0 31.349 7.728 40.906 20.672 2.461 3.333 7.155 4.04 10.488 1.579 3.332-2.46 4.039-7.156 1.578-10.488-1.406-1.904-2.912-3.716-4.5-5.441h32.004l-9.172 61.6h-7.775c1.414-5.215 2.201-10.682 2.268-16.314.05-4.142-3.269-7.539-7.41-7.588-4.105-.079-7.54 3.269-7.588 7.411-.327 27.68-23.117 50.201-50.799 50.201zm53.378-9.36c0-2.504.971-4.854 2.724-6.607 1.775-1.769 4.129-2.743 6.627-2.743h74.676v16.902c0 .611.037 1.213.101 1.808h-74.778c-5.156-.001-9.35-4.199-9.35-9.36zm259.655-57.946v65.498c0 .997-.812 1.809-1.809 1.809h-157.011c-.997 0-1.809-.812-1.809-1.809v-65.498c0-.997.812-1.809 1.809-1.809h157.012c.997.001 1.808.812 1.808 1.809zm-128.408-16.808h-30.412c-9.269 0-16.809 7.541-16.809 16.809v33.595h-50.935l9.172-61.6h87.314zm185.013-26.197h-341.583c-8.683-4.1-18.258-6.322-28.055-6.322-10.054 0-19.584 2.274-28.115 6.322h-56.287c-7.709 0-13.98-6.271-13.98-13.98v-21.92h482v21.92c0 7.709-6.271 13.98-13.98 13.98z" fill="#0c969c" data-original="#000000" style="" class=""/><path d="m283.699 455.184h17.603c4.143 0 7.5-3.358 7.5-7.5s-3.357-7.5-7.5-7.5h-10.103v-29.222c0-4.142-3.357-7.5-7.5-7.5s-7.5 3.358-7.5 7.5v36.722c0 4.142 3.358 7.5 7.5 7.5z" fill="#0c969c" data-original="#000000" style="" class=""/><path d="m321.729 455.184c4.143 0 7.5-3.358 7.5-7.5v-36.722c0-4.142-3.357-7.5-7.5-7.5s-7.5 3.358-7.5 7.5v36.722c0 4.142 3.357 7.5 7.5 7.5z" fill="#0c969c" data-original="#000000" style="" class=""/><path d="m349.816 450.295c1.091 2.939 3.896 4.889 7.03 4.889s5.939-1.95 7.031-4.889l13.638-36.722c1.441-3.883-.537-8.2-4.42-9.642-3.886-1.443-8.2.537-9.643 4.419l-6.606 17.791-6.608-17.791c-1.442-3.883-5.758-5.864-9.642-4.419-3.883 1.442-5.861 5.759-4.419 9.642z" fill="#0c969c" data-original="#000000" style="" class=""/><path d="m390.898 455.184h17.603c4.143 0 7.5-3.358 7.5-7.5s-3.357-7.5-7.5-7.5h-10.103v-3.361h6.139c4.143 0 7.5-3.358 7.5-7.5s-3.357-7.5-7.5-7.5h-6.139v-3.361h10.103c4.143 0 7.5-3.358 7.5-7.5s-3.357-7.5-7.5-7.5h-17.603c-4.143 0-7.5 3.358-7.5 7.5v36.722c0 4.142 3.358 7.5 7.5 7.5z" fill="#0c969c" data-original="#000000" style="" class=""/><path d="m128.853 430.429c-4.388-3.485-9.882-5.405-15.471-5.405-5.588 0-11.082 1.919-15.47 5.404-3.244 2.576-3.785 7.293-1.209 10.537 1.48 1.865 3.669 2.836 5.878 2.836 1.634 0 3.28-.532 4.659-1.627 1.771-1.407 3.896-2.15 6.142-2.15 2.247 0 4.37.743 6.141 2.15 3.245 2.577 7.962 2.036 10.537-1.208 2.577-3.242 2.036-7.96-1.207-10.537z" fill="#0c969c" data-original="#000000" style="" class=""/><path d="m140.539 411.769c-7.815-6.208-17.207-9.49-27.157-9.49s-19.342 3.282-27.157 9.49c-3.243 2.576-3.784 7.294-1.208 10.538 2.578 3.243 7.293 3.783 10.538 1.208 5.135-4.079 11.3-6.235 17.827-6.235s12.692 2.156 17.827 6.235c1.38 1.096 3.025 1.628 4.66 1.628 2.209 0 4.397-.972 5.878-2.835 2.576-3.245 2.035-7.963-1.208-10.539z" fill="#0c969c" data-original="#000000" style="" class=""/><path d="m150.434 392.714c-10.665-8.471-23.478-12.948-37.052-12.948s-26.387 4.478-37.052 12.949c-3.243 2.576-3.784 7.294-1.208 10.538 1.481 1.864 3.669 2.835 5.878 2.835 1.635 0 3.28-.532 4.66-1.627 7.984-6.342 17.57-9.694 27.722-9.694s19.738 3.352 27.724 9.694c3.243 2.577 7.961 2.036 10.537-1.208 2.576-3.245 2.035-7.963-1.209-10.539z" fill="#0c969c" data-original="#000000" style="" class=""/><path d="m38.716 74.507v.129c0 4.142 3.357 7.5 7.5 7.5s7.5-3.358 7.5-7.5v-.129c0-4.142-3.357-7.5-7.5-7.5s-7.5 3.358-7.5 7.5z" fill="#0c969c" data-original="#000000" style="" class=""/><path d="m73.776 67.136c-4.143 0-7.5 3.358-7.5 7.5s3.357 7.5 7.5 7.5h25.128c4.143 0 7.5-3.358 7.5-7.5s-3.357-7.5-7.5-7.5z" fill="#0c969c" data-original="#000000" style="" class=""/><path d="m421.121 121.734c2.11 1.224 4.429 1.836 6.748 1.836 2.294 0 4.59-.6 6.685-1.799l25.876-14.812c4.239-2.427 6.771-6.792 6.771-11.677s-2.531-9.25-6.771-11.677l-25.876-14.812c-4.212-2.413-9.234-2.397-13.433.037-4.199 2.435-6.706 6.786-6.706 11.64v29.624c0 4.854 2.507 9.205 6.706 11.64zm8.294-38.598 21.22 12.147-21.22 12.146z" fill="#0c969c" data-original="#000000" style="" class=""/></g></g></g></g></g></svg>
